<svg width="24" height="24" viewBox="0 0 24 24" fill="none" xmlns="http://www.w3.org/2000/svg">
  <!-- Background -->
  <circle cx="12" cy="12" r="12" fill="#FCE7F3"/>

  <!-- Neck -->
  <rect x="10" y="16" width="4" height="3" fill="#D4A574"/>

  <!-- Lab coat -->
  <path d="M6 19 L6 24 L18 24 L18 19 L15 16 L9 16 Z" fill="#FFFFFF"/>
  <path d="M11.5 16 L11.5 24" stroke="#D1D5DB" stroke-width="0.3"/>
  <path d="M12.5 16 L12.5 24" stroke="#D1D5DB" stroke-width="0.3"/>

  <!-- Face -->
  <circle cx="12" cy="10" r="4.5" fill="#D4A574"/>

  <!-- Hair (long, brown) -->
  <path d="M 7 10 Q 7 5 12 5 Q 17 5 17 10 L 17 12 Q 16.5 8 12 8 Q 7.5 8 7 12 Z" fill="#5C3317"/>
  <ellipse cx="7.5" cy="11" rx="1.5" ry="3" fill="#5C3317"/>
  <ellipse cx="16.5" cy="11" rx="1.5" ry="3" fill="#5C3317"/>

  <!-- Eyes -->
  <circle cx="10" cy="10" r="0.6" fill="#1F2937"/>
  <circle cx="14" cy="10" r="0.6" fill="#1F2937"/>

  <!-- Smile -->
  <path d="M 10 12 Q 12 13 14 12" stroke="#1F2937" stroke-width="0.4" fill="none" stroke-linecap="round"/>

  <!-- Stethoscope -->
  <path d="M 10 19 Q 10 20 11 20 L 13 20 Q 14 20 14 19" stroke="#EC4899" stroke-width="0.5" fill="none"/>
  <circle cx="9.5" cy="19" r="0.6" fill="#EC4899"/>
  <circle cx="14.5" cy="19" r="0.6" fill="#EC4899"/>
</svg>
