<svg width="24" height="24" viewBox="0 0 24 24" fill="none" xmlns="http://www.w3.org/2000/svg">
  <!-- Background -->
  <circle cx="12" cy="12" r="12" fill="#D1FAE5"/>

  <!-- Neck -->
  <rect x="10" y="16" width="4" height="3" fill="#8B6F47"/>

  <!-- Lab coat -->
  <path d="M6 19 L6 24 L18 24 L18 19 L15 16 L9 16 Z" fill="#FFFFFF"/>
  <path d="M11.5 16 L11.5 24" stroke="#D1D5DB" stroke-width="0.3"/>
  <path d="M12.5 16 L12.5 24" stroke="#D1D5DB" stroke-width="0.3"/>

  <!-- Face -->
  <circle cx="12" cy="10" r="4.5" fill="#8B6F47"/>

  <!-- Hair (curly, short) -->
  <path d="M 7.5 10 Q 7.5 6 12 5.5 Q 16.5 6 16.5 10 L 16.5 10.5 Q 16 8.5 12 8.5 Q 8 8.5 7.5 10.5 Z" fill="#1A1A1A"/>
  <circle cx="8.5" cy="8" r="1" fill="#1A1A1A"/>
  <circle cx="10.5" cy="7" r="1" fill="#1A1A1A"/>
  <circle cx="13.5" cy="7" r="1" fill="#1A1A1A"/>
  <circle cx="15.5" cy="8" r="1" fill="#1A1A1A"/>

  <!-- Eyes -->
  <circle cx="10" cy="10.5" r="0.6" fill="#1F2937"/>
  <circle cx="14" cy="10.5" r="0.6" fill="#1F2937"/>

  <!-- Smile -->
  <path d="M 10 12.5 Q 12 13.5 14 12.5" stroke="#1F2937" stroke-width="0.4" fill="none" stroke-linecap="round"/>

  <!-- Stethoscope -->
  <path d="M 10 19 Q 10 20 11 20 L 13 20 Q 14 20 14 19" stroke="#10B981" stroke-width="0.5" fill="none"/>
  <circle cx="9.5" cy="19" r="0.6" fill="#10B981"/>
  <circle cx="14.5" cy="19" r="0.6" fill="#10B981"/>
</svg>
