<svg xmlns="http://www.w3.org/2000/svg" width="128" height="128" viewBox="0 0 64 64" fill="none" role="img" aria-label="Klaro">
  <defs>
    <linearGradient id="klaro-g" x1="14" y1="18" x2="50" y2="46" gradientUnits="userSpaceOnUse">
      <stop stop-color="#1FB6D7" />
      <stop offset="1" stop-color="#35D399" />
    </linearGradient>
    <linearGradient id="klaro-bg" x1="10" y1="10" x2="54" y2="54" gradientUnits="userSpaceOnUse">
      <stop stop-color="#FFFFFF" />
      <stop offset="1" stop-color="#F2FAFA" />
    </linearGradient>
    <filter id="klaro-shadow" x="-20%" y="-20%" width="140%" height="140%" color-interpolation-filters="sRGB">
      <feDropShadow dx="0" dy="6" stdDeviation="6" flood-color="#0B1220" flood-opacity="0.12" />
      <feDropShadow dx="0" dy="1" stdDeviation="0.5" flood-color="#0B1220" flood-opacity="0.08" />
    </filter>
  </defs>

  <!-- Rounded app-icon tile -->
  <rect x="6" y="6" width="52" height="52" rx="14" fill="url(#klaro-bg)" filter="url(#klaro-shadow)" />

  <!-- Hex network -->
  <g stroke="url(#klaro-g)" stroke-width="3.5" stroke-linecap="round" stroke-linejoin="round">
    <path d="M32 15 L45.5 22.5 L45.5 41.5 L32 49 L18.5 41.5 L18.5 22.5 Z" />
    <path d="M32 15 L32 49" />
  </g>

  <!-- Nodes -->
  <g fill="url(#klaro-g)">
    <circle cx="32" cy="15" r="3.2" />
    <circle cx="45.5" cy="22.5" r="3.2" />
    <circle cx="45.5" cy="41.5" r="3.2" />
    <circle cx="32" cy="49" r="3.2" />
    <circle cx="18.5" cy="41.5" r="3.2" />
    <circle cx="18.5" cy="22.5" r="3.2" />
  </g>

  <!-- Medical cross -->
  <g fill="url(#klaro-g)">
    <rect x="28.3" y="23" width="7.4" height="18" rx="3.7" />
    <rect x="23" y="28.3" width="18" height="7.4" rx="3.7" />
  </g>
</svg>

